# xmcd
#
# Track frame offsets:
#	150
#	20137
#	36864
#	68593
#	87343
#	110460
#	154074
#	181071
#	210278
#	234383
#
# Disc length: 3549 seconds
#
# Revision: 1
# Processed by: cddbd v1.5.1PL0 Copyright (c) Steve Scherf et al.
# Submitted via: audiograbber 1.83.01
#
DISCID=760ddb0a
DTITLE=Hideaway Blues Band - Nice Work If You Can Get It
DYEAR=1900
DGENRE=Blues
TTITLE0=Drivin All Night
TTITLE1=On My Way
TTITLE2=The Change
TTITLE3=See My Baby
TTITLE4=Stealin Heart
TTITLE5=19 Years Old
TTITLE6=Wait On Time
TTITLE7=Going Down
TTITLE8=Runnin From The Shadows
TTITLE9=She's All Right
EXTD=
EXTT0=
EXTT1=
EXTT2=
EXTT3=
EXTT4=
EXTT5=
EXTT6=
EXTT7=
EXTT8=
EXTT9=
PLAYORDER=
